<svg xmlns="http://www.w3.org/2000/svg" viewBox="0 0 800 450" width="800" height="450" role="img">
<defs>
<linearGradient id="bg" x1="0" y1="0" x2="1" y2="1">
<stop offset="0" stop-color="#000000"/><stop offset="1" stop-color="#111318"/>
</linearGradient>
<pattern id="zellige" width="60" height="60" patternUnits="userSpaceOnUse">
<path d="M30 4 L36 24 L56 30 L36 36 L30 56 L24 36 L4 30 L24 24 Z" fill="#ffffff" opacity="0.05"/>
</pattern>
</defs>
<rect width="800" height="450" fill="url(#bg)"/>
<rect width="800" height="450" fill="url(#zellige)"/>
<circle cx="400" cy="205" r="150" fill="#ffffff" opacity="0.06"/>
<g transform="translate(300,105) scale(1.0)"><g fill="none" stroke="#ffcf4d" stroke-width="7" stroke-linecap="round" stroke-linejoin="round">
<circle cx="100" cy="95" r="60" fill="rgba(255,207,77,.2)"/>
<polygon points="100,70 122,86 114,112 86,112 78,86" fill="#ffcf4d" stroke="none"/>
<path d="M100 35 v18 M148 62 l-14 10 M52 62 l14 10" opacity=".7"/>
<rect x="70" y="162" width="60" height="12" rx="3" fill="#ffcf4d" stroke="none" opacity=".8"/>
<line x1="100" y1="155" x2="100" y2="162"/>
</g></g>
<rect x="0" y="405" width="800" height="45" fill="rgba(0,0,0,0.35)"/>
<rect x="0" y="405" width="8" height="45" fill="#ffffff" opacity="0.9"/>
<text x="24" y="434" font-family="Arial, sans-serif" font-size="19" font-weight="bold" fill="#ffffff" letter-spacing="2">SPORT &amp; MONDIAL 2030</text>
<text x="776" y="434" text-anchor="end" font-family="Arial, sans-serif" font-size="16" fill="#ffffff" opacity="0.8">DIMAmaghrib2030</text>
</svg>
