<svg xmlns="http://www.w3.org/2000/svg" viewBox="0 0 800 450" width="800" height="450" role="img">
<defs>
<linearGradient id="bg" x1="0" y1="0" x2="1" y2="1">
<stop offset="0" stop-color="#7a0a1d"/><stop offset="1" stop-color="#c8102e"/>
</linearGradient>
<pattern id="zellige" width="60" height="60" patternUnits="userSpaceOnUse">
<path d="M30 4 L36 24 L56 30 L36 36 L30 56 L24 36 L4 30 L24 24 Z" fill="#ffffff" opacity="0.05"/>
</pattern>
</defs>
<rect width="800" height="450" fill="url(#bg)"/>
<rect width="800" height="450" fill="url(#zellige)"/>
<circle cx="400" cy="205" r="150" fill="#ffffff" opacity="0.06"/>
<g transform="translate(300,105) scale(1.0)"><g fill="none" stroke="#ffffff" stroke-width="7" stroke-linecap="round" stroke-linejoin="round">
<rect x="55" y="35" width="90" height="130" rx="4" fill="rgba(255,255,255,.12)"/>
<line x1="40" y1="165" x2="160" y2="165"/>
<rect x="68" y="50" width="16" height="16" fill="#ffffff" stroke="none" opacity=".85"/><rect x="68" y="76" width="16" height="16" fill="#ffffff" stroke="none" opacity=".85"/><rect x="68" y="102" width="16" height="16" fill="#ffffff" stroke="none" opacity=".85"/><rect x="92" y="50" width="16" height="16" fill="#ffffff" stroke="none" opacity=".85"/><rect x="92" y="76" width="16" height="16" fill="#ffffff" stroke="none" opacity=".85"/><rect x="92" y="102" width="16" height="16" fill="#ffffff" stroke="none" opacity=".85"/><rect x="116" y="50" width="16" height="16" fill="#ffffff" stroke="none" opacity=".85"/><rect x="116" y="76" width="16" height="16" fill="#ffffff" stroke="none" opacity=".85"/><rect x="116" y="102" width="16" height="16" fill="#ffffff" stroke="none" opacity=".85"/>
<rect x="88" y="132" width="24" height="33" fill="#ffffff" stroke="none" opacity=".85"/>
</g></g>
<rect x="0" y="405" width="800" height="45" fill="rgba(0,0,0,0.35)"/>
<rect x="0" y="405" width="8" height="45" fill="#ffffff" opacity="0.9"/>
<text x="24" y="434" font-family="Arial, sans-serif" font-size="19" font-weight="bold" fill="#ffffff" letter-spacing="2">TOURISME</text>
<text x="776" y="434" text-anchor="end" font-family="Arial, sans-serif" font-size="16" fill="#ffffff" opacity="0.8">DIMAmaghrib2030</text>
</svg>
